<?xml version="1.0" encoding="UTF-8"?>
<!--Generator: Apple Native CoreSVG 175.5-->
<!DOCTYPE svg
PUBLIC "-//W3C//DTD SVG 1.1//EN"
       "http://www.w3.org/Graphics/SVG/1.1/DTD/svg11.dtd">
<svg version="1.1" xmlns="http://www.w3.org/2000/svg" xmlns:xlink="http://www.w3.org/1999/xlink" width="244.75" height="244.875">
 <g>
  <rect height="244.875" opacity="0" width="244.75" x="0" y="0"/>
  <path d="M10 79.75C16.625 79.75 20.125 76 20.125 69.5L20.125 40C20.125 27 27 20.375 39.5 20.375L69.75 20.375C76.375 20.375 80 16.75 80 10.25C80 3.75 76.375 0.25 69.75 0.25L39.25 0.25C13.125 0.25 0 13.125 0 38.875L0 69.5C0 76 3.625 79.75 10 79.75ZM234.625 79.75C241.25 79.75 244.75 76 244.75 69.5L244.75 38.875C244.75 13.125 231.625 0.25 205.5 0.25L174.875 0.25C168.375 0.25 164.75 3.75 164.75 10.25C164.75 16.75 168.375 20.375 174.875 20.375L205.125 20.375C217.5 20.375 224.625 27 224.625 40L224.625 69.5C224.625 76 228.25 79.75 234.625 79.75ZM39.25 244.875L69.75 244.875C76.375 244.875 80 241.25 80 234.875C80 228.375 76.375 224.75 69.75 224.75L39.5 224.75C27 224.75 20.125 218.125 20.125 205.125L20.125 175.625C20.125 169 16.5 165.375 10 165.375C3.5 165.375 0 169 0 175.625L0 206.125C0 232 13.125 244.875 39.25 244.875ZM174.875 244.875L205.5 244.875C231.625 244.875 244.75 231.875 244.75 206.125L244.75 175.625C244.75 169 241.125 165.375 234.625 165.375C228.125 165.375 224.625 169 224.625 175.625L224.625 205.125C224.625 218.125 217.5 224.75 205.125 224.75L174.875 224.75C168.375 224.75 164.75 228.375 164.75 234.875C164.75 241.25 168.375 244.875 174.875 244.875Z" fill="#ffffff" fill-opacity="0.85"/>
  <path d="M59.5 192.25L185.25 192.25C190.625 192.25 193.375 188.625 193.375 183.5C193.375 168.5 170.625 129.5 122.375 129.5C74.125 129.5 51.375 168.5 51.375 183.5C51.375 188.625 54.125 192.25 59.5 192.25ZM122.375 118.25C142 118.375 157.625 101.75 157.625 79.625C157.625 59 142 41.875 122.375 41.875C102.75 41.875 87.125 59 87.125 79.625C87.125 101.75 102.75 118.125 122.375 118.25Z" fill="#ffffff" fill-opacity="0.85"/>
 </g>
</svg>
